<svg data-v-0dd9719b="" version="1.0" xmlns="http://www.w3.org/2000/svg" xmlns:xlink="http://www.w3.org/1999/xlink" width="100%" height="100%" viewBox="0 0 340.000000 250.000000" preserveAspectRatio="xMidYMid meet" color-interpolation-filters="sRGB" style="margin: auto;"> <rect data-v-0dd9719b="" x="0" y="0" width="100%" height="100%" fill="#fff" fill-opacity="1" class="background"></rect> <rect data-v-0dd9719b="" x="0" y="0" width="100%" height="100%" fill="url(#watermark)" fill-opacity="1" class="watermarklayer"></rect> <g data-v-0dd9719b="" fill="#333" class="icon-text-wrapper icon-svg-group iconsvg" transform="translate(48.55999755894996,93.90128135681152)"><g class="iconsvg-imagesvg" transform="translate(0,0)"><g><rect fill="#333" fill-opacity="0" stroke-width="2" x="0" y="0" width="60" height="62.197435392413986" class="image-rect"></rect> <svg x="0" y="0" width="60" height="62.197435392413986" filtersec="colorsb918266581" class="image-svg-svg primary" style="overflow: visible;"><svg xmlns="http://www.w3.org/2000/svg" viewBox="-0.006915092468261719 0.00093841552734375 78.43677520751953 81.30919647216797"><title>资源 132</title><path d="M48 2.87C35 6.83 30.23 17 27.63 29a26.11 26.11 0 0 1-3.87 9.45C20 43.88 12.09 45.54 5.84 42.22.4 39.33-1.32 34 1 27.29 7.44 8.85 27.19-3.08 45 .7c1 .2 2.15.05 3 2.17zM28.8 79.47c6-3.5 11.37-5.16 14.67-9.94 3.1-4.48 4.61-9.53 6.17-14.53a62.83 62.83 0 0 1 3.58-10.14 13.88 13.88 0 0 1 19-5.83c4.19 2.18 6.89 7.29 6.06 11.49C74.67 68.61 53.42 83.68 35.11 81c-1.63-.23-3.22-.77-6.31-1.53z" fill="#1686cb"></path><path d="M73.63 17.8c0 6.42-5.33 11.9-11.57 11.89s-12.14-6.05-12-12.3S55.62 5.93 62.13 6a11.53 11.53 0 0 1 11.5 11.8zM16 75.24A11.51 11.51 0 0 1 4.41 63.5c.07-6.16 5.81-12 11.7-11.89 6.26.1 12.17 6.16 12 12.31S22.38 75.33 16 75.24z" fill="#ef5b24"></path></svg></svg> <!----></g></g> <g transform="translate(67.00000381469727,5.26246452331543)"><g data-gra="path-name" fill-rule="" class="tp-name iconsvg-namesvg" transform="translate(0,0)"><g transform="scale(1)"><g><path d="M13.6 0L3.48 0 3.48-28.63 12.61-28.63Q15.24-28.63 17.15-28.11 19.06-27.59 20.29-26.63 21.52-25.67 22.11-24.28 22.69-22.89 22.69-21.16L22.69-21.16Q22.69-20.1 22.37-19.12 22.04-18.14 21.37-17.3 20.7-16.46 19.69-15.8 18.68-15.14 17.32-14.72L17.32-14.72Q20.46-14.1 22.06-12.47 23.65-10.83 23.65-8.15L23.65-8.15Q23.65-6.33 22.98-4.83 22.32-3.34 21.03-2.26 19.74-1.18 17.87-0.59 16 0 13.6 0L13.6 0ZM13.52-13.05L7.35-13.05 7.35-3.08 13.54-3.08Q15.2-3.08 16.39-3.46 17.58-3.84 18.35-4.52 19.12-5.21 19.48-6.16 19.84-7.11 19.84-8.25L19.84-8.25Q19.84-10.47 18.27-11.76 16.7-13.05 13.52-13.05L13.52-13.05ZM7.35-25.57L7.35-15.8 12.47-15.8Q14.1-15.8 15.3-16.16 16.5-16.52 17.29-17.16 18.08-17.8 18.46-18.71 18.84-19.62 18.84-20.7L18.84-20.7Q18.84-23.21 17.32-24.39 15.8-25.57 12.61-25.57L12.61-25.57 7.35-25.57ZM29.17-29.43L32.72-29.43 32.72 0 29.17 0 29.17-29.43ZM47.19-20.56L47.19-20.56Q49.41-20.56 51.19-19.82 52.98-19.08 54.23-17.72 55.48-16.36 56.15-14.43 56.82-12.51 56.82-10.13L56.82-10.13Q56.82-7.73 56.15-5.81 55.48-3.9 54.23-2.54 52.98-1.18 51.19-0.45 49.41 0.28 47.19 0.28L47.19 0.28Q44.97 0.28 43.18-0.45 41.39-1.18 40.14-2.54 38.88-3.9 38.2-5.81 37.52-7.73 37.52-10.13L37.52-10.13Q37.52-12.51 38.2-14.43 38.88-16.36 40.14-17.72 41.39-19.08 43.18-19.82 44.97-20.56 47.19-20.56ZM47.19-2.5L47.19-2.5Q50.18-2.5 51.66-4.5 53.14-6.51 53.14-10.11L53.14-10.11Q53.14-13.72 51.66-15.74 50.18-17.76 47.19-17.76L47.19-17.76Q45.67-17.76 44.55-17.24 43.43-16.72 42.68-15.74 41.93-14.76 41.56-13.34 41.19-11.91 41.19-10.11L41.19-10.11Q41.19-8.31 41.56-6.89 41.93-5.47 42.68-4.5 43.43-3.54 44.55-3.02 45.67-2.5 47.19-2.5ZM57.66 0L64.75-10.37 57.94-20.24 61.35-20.24Q61.79-20.24 61.99-20.1 62.19-19.96 62.35-19.7L62.35-19.7 67.31-12.11Q67.49-12.67 67.82-13.23L67.82-13.23 72.18-19.62Q72.38-19.9 72.58-20.07 72.78-20.24 73.08-20.24L73.08-20.24 76.36-20.24 69.54-10.57 76.63 0 73.22 0Q72.78 0 72.53-0.23 72.28-0.46 72.12-0.74L72.12-0.74 67.03-8.67Q66.89-8.09 66.61-7.63L66.61-7.63 61.89-0.74Q61.69-0.46 61.46-0.23 61.23 0 60.83 0L60.83 0 57.66 0ZM111.64-28.63L111.64 0 107.74 0 107.74-13.03 92.32-13.03 92.32 0 88.42 0 88.42-28.63 92.32-28.63 92.32-15.86 107.74-15.86 107.74-28.63 111.64-28.63ZM126.26-20.56L126.26-20.56Q128.48-20.56 130.27-19.82 132.05-19.08 133.3-17.72 134.55-16.36 135.22-14.43 135.89-12.51 135.89-10.13L135.89-10.13Q135.89-7.73 135.22-5.81 134.55-3.9 133.3-2.54 132.05-1.18 130.27-0.45 128.48 0.28 126.26 0.28L126.26 0.28Q124.04 0.28 122.25-0.45 120.47-1.18 119.21-2.54 117.95-3.9 117.27-5.81 116.59-7.73 116.59-10.13L116.59-10.13Q116.59-12.51 117.27-14.43 117.95-16.36 119.21-17.72 120.47-19.08 122.25-19.82 124.04-20.56 126.26-20.56ZM126.26-2.5L126.26-2.5Q129.26-2.5 130.73-4.5 132.21-6.51 132.21-10.11L132.21-10.11Q132.21-13.72 130.73-15.74 129.26-17.76 126.26-17.76L126.26-17.76Q124.74-17.76 123.62-17.24 122.5-16.72 121.75-15.74 121.01-14.76 120.64-13.34 120.27-11.91 120.27-10.11L120.27-10.11Q120.27-8.31 120.64-6.89 121.01-5.47 121.75-4.5 122.5-3.54 123.62-3.02 124.74-2.5 126.26-2.5ZM143.84 0L140.28 0 140.28-20.24 142.4-20.24Q143.16-20.24 143.36-19.5L143.36-19.5 143.64-17.3Q144.96-18.76 146.59-19.66 148.22-20.56 150.35-20.56L150.35-20.56Q152.01-20.56 153.28-20.01 154.55-19.46 155.4-18.45 156.25-17.44 156.69-16.02 157.13-14.6 157.13-12.89L157.13-12.89 157.13 0 153.57 0 153.57-12.89Q153.57-15.18 152.52-16.45 151.47-17.72 149.31-17.72L149.31-17.72Q147.74-17.72 146.37-16.96 145-16.2 143.84-14.9L143.84-14.9 143.84 0ZM169.31-20.58L169.31-20.58Q170.63-20.58 171.78-20.29 172.93-20 173.87-19.44L173.87-19.44 179.36-19.44 179.36-18.12Q179.36-17.46 178.52-17.28L178.52-17.28 176.22-16.96Q176.9-15.66 176.9-14.06L176.9-14.06Q176.9-12.59 176.33-11.38 175.76-10.17 174.76-9.31 173.75-8.45 172.36-7.99 170.97-7.53 169.31-7.53L169.31-7.53Q167.89-7.53 166.63-7.87L166.63-7.87Q166-7.47 165.67-7.01 165.34-6.55 165.34-6.11L165.34-6.11Q165.34-5.39 165.92-5.02 166.5-4.65 167.45-4.5 168.41-4.34 169.63-4.3 170.85-4.26 172.12-4.17 173.39-4.08 174.61-3.86 175.82-3.64 176.78-3.14 177.74-2.64 178.32-1.76 178.9-0.88 178.9 0.52L178.9 0.52Q178.9 1.82 178.25 3.04 177.6 4.26 176.38 5.2 175.17 6.15 173.41 6.72 171.65 7.29 169.43 7.29L169.43 7.29Q167.21 7.29 165.55 6.85 163.88 6.41 162.78 5.67 161.68 4.93 161.13 3.97 160.58 3 160.58 1.94L160.58 1.94Q160.58 0.44 161.53-0.61 162.48-1.66 164.14-2.28L164.14-2.28Q163.28-2.68 162.77-3.35 162.26-4.02 162.26-5.13L162.26-5.13Q162.26-5.57 162.42-6.04 162.58-6.51 162.91-6.97 163.24-7.43 163.72-7.85 164.2-8.27 164.84-8.59L164.84-8.59Q163.34-9.43 162.49-10.82 161.64-12.21 161.64-14.06L161.64-14.06Q161.64-15.54 162.21-16.75 162.78-17.96 163.8-18.81 164.82-19.66 166.23-20.12 167.63-20.58 169.31-20.58ZM175.62 1.1L175.62 1.1Q175.62 0.34 175.21-0.12 174.79-0.58 174.07-0.83 173.35-1.08 172.41-1.2 171.47-1.32 170.43-1.37 169.39-1.42 168.31-1.48 167.23-1.54 166.26-1.7L166.26-1.7Q165.12-1.16 164.41-0.38 163.7 0.4 163.7 1.48L163.7 1.48Q163.7 2.16 164.05 2.75 164.4 3.34 165.12 3.77 165.84 4.2 166.92 4.45 168.01 4.69 169.49 4.69L169.49 4.69Q170.93 4.69 172.07 4.44 173.21 4.18 174 3.7 174.79 3.22 175.21 2.56 175.62 1.9 175.62 1.1ZM169.31-9.89L169.31-9.89Q170.39-9.89 171.22-10.19 172.05-10.49 172.61-11.03 173.17-11.57 173.45-12.32 173.73-13.07 173.73-13.96L173.73-13.96Q173.73-15.82 172.6-16.92 171.47-18.02 169.31-18.02L169.31-18.02Q167.17-18.02 166.05-16.92 164.92-15.82 164.92-13.96L164.92-13.96Q164.92-13.07 165.21-12.32 165.5-11.57 166.06-11.03 166.61-10.49 167.43-10.19 168.25-9.89 169.31-9.89Z" transform="translate(-3.4800000190734863, 29.43000030517578)"></path></g> <!----> <!----> <!----> <!----> <!----> <!----> <!----></g></g> <g data-gra="path-slogan" fill-rule="" class="tp-slogan iconsvg-slogansvg" fill="#333" transform="translate(45.820003509521484,42.72000503540039)"><!----> <!----> <g transform="scale(1, 1)"><g transform="scale(1)"><path d="M3.42-4.31L2.06-3.05L2.06 0L0.89 0L0.89-8.58L2.06-8.58L2.06-4.41L6.23-8.58L7.88-8.58L4.27-5.11L7.97 0L6.42 0L3.42-4.31ZM15.66-4.27L15.66-4.27Q15.47-7.64 12.66-7.83L12.66-7.83Q9.80-7.69 9.66-4.27L9.66-4.27Q9.80-0.94 12.66-0.80L12.66-0.80Q15.47-0.98 15.66-4.27ZM16.83-4.27L16.83-4.27Q16.55 0 12.66 0.14L12.66 0.14Q8.72 0 8.44-4.27L8.44-4.27Q8.67-8.72 12.66-8.81L12.66-8.81Q16.55-8.67 16.83-4.27ZM19.59-8.58L23.91-1.64L23.91-8.58L25.03-8.58L25.03 0L23.72 0L19.36-6.94L19.31-6.94L19.31 0L18.19 0L18.19-8.58L19.59-8.58ZM33.23-3.61L30.61-3.61L30.61-4.59L34.36-4.59L34.36 0L33.61 0L33.33-1.08Q32.34 0.09 30.52 0.14L30.52 0.14Q28.78 0.14 27.84-0.75L27.84-0.75Q26.44-2.06 26.48-4.36L26.48-4.36Q26.81-8.63 30.56-8.81L30.56-8.81Q33.75-8.63 34.22-6L34.22-6L33.09-6Q32.63-7.78 30.52-7.83L30.52-7.83Q27.84-7.64 27.70-4.31L27.70-4.31Q27.70-0.75 30.56-0.75L30.56-0.75Q31.59-0.75 32.34-1.31L32.34-1.31Q33.28-2.06 33.23-3.61L33.23-3.61ZM39.47-8.58L40.64-8.58L40.64-1.03L45-1.03L45 0L39.47 0L39.47-8.58ZM46.31-8.58L47.48-8.58L47.48 0L46.31 0L46.31-8.58ZM57.70-8.58L57.70 0L56.58 0L56.58-5.06Q56.58-5.77 56.58-7.22L56.58-7.22L54.14 0L52.97 0L50.58-7.22L50.53-7.22Q50.53-6.70 50.58-5.67L50.58-5.67Q50.58-5.16 50.58-5.06L50.58-5.06L50.58 0L49.41 0L49.41-8.58L51.09-8.58L53.58-1.31L56.02-8.58L57.70-8.58ZM59.58-8.58L60.75-8.58L60.75 0L59.58 0L59.58-8.58ZM64.92-7.59L62.02-7.59L62.02-8.58L68.95-8.58L68.95-7.59L66.05-7.59L66.05 0L64.92 0L64.92-7.59ZM71.30-1.03L76.45-1.03L76.45 0L70.13 0L70.13-8.58L76.36-8.58L76.36-7.59L71.30-7.59L71.30-4.92L75.98-4.92L75.98-3.89L71.30-3.89L71.30-1.03ZM81.47 0L78 0L78-8.58L81.52-8.58Q84.98-8.39 85.13-4.41L85.13-4.41Q84.94-0.09 81.47 0L81.47 0ZM81.33-7.64L79.17-7.64L79.17-0.98L81.42-0.98Q83.86-1.13 83.95-4.31L83.95-4.31Q83.91-7.55 81.33-7.64L81.33-7.64Z" transform="translate(-0.890625, 8.8125)"></path></g></g></g></g></g><defs v-gra="od"></defs></svg>